<svg width="168" height="44" viewBox="0 0 168 44" fill="none" xmlns="http://www.w3.org/2000/svg">
<rect width="168" height="44" rx="22" fill="white"/>
<path d="M25.1094 28V16.75H30.0938C31.375 16.75 32.3411 16.9844 32.9922 17.4531C33.6432 17.9167 33.9688 18.5938 33.9688 19.4844C33.9688 20.0573 33.8516 20.5182 33.6172 20.8672C33.3828 21.2161 33.0885 21.4792 32.7344 21.6562C32.3802 21.8281 32.0234 21.9401 31.6641 21.9922L31.6875 21.9609C32.5 22.0911 33.1432 22.401 33.6172 22.8906C34.0964 23.375 34.3359 24.0469 34.3359 24.9062C34.3359 25.6823 34.151 26.2969 33.7812 26.75C33.4167 27.2031 32.9323 27.526 32.3281 27.7188C31.724 27.9062 31.0651 28 30.3516 28H25.1094ZM27.5234 26.125H29.9297C30.4505 26.125 30.8516 26.0521 31.1328 25.9062C31.4193 25.7552 31.6172 25.5599 31.7266 25.3203C31.8411 25.0755 31.8984 24.8099 31.8984 24.5234C31.8984 24.1901 31.8229 23.9036 31.6719 23.6641C31.526 23.4193 31.2917 23.2292 30.9688 23.0938C30.651 22.9583 30.2292 22.8906 29.7031 22.8906H27.5234V26.125ZM27.5234 21.1172H29.9141C30.4193 21.1172 30.8177 21.0208 31.1094 20.8281C31.401 20.6302 31.5469 20.3099 31.5469 19.8672C31.5469 19.4974 31.4297 19.1979 31.1953 18.9688C30.9609 18.7396 30.5469 18.625 29.9531 18.625H27.5234V21.1172ZM38.5078 28.2031C37.9714 28.2031 37.4766 28.1094 37.0234 27.9219C36.5703 27.7292 36.2057 27.4453 35.9297 27.0703C35.6589 26.6953 35.5234 26.2266 35.5234 25.6641C35.5234 25.0599 35.6979 24.5469 36.0469 24.125C36.3958 23.7031 36.9036 23.3828 37.5703 23.1641C38.237 22.9401 39.0417 22.8281 39.9844 22.8281H41.1719L41.0312 23.0391V22.5547C41.0312 21.9974 40.9297 21.5833 40.7266 21.3125C40.5234 21.0365 40.1875 20.8984 39.7188 20.8984C39.2708 20.8984 38.9271 21.0182 38.6875 21.2578C38.4531 21.4922 38.3099 21.8281 38.2578 22.2656L35.8828 21.8594C35.9714 21.3906 36.1719 20.9688 36.4844 20.5938C36.8021 20.2135 37.2396 19.9115 37.7969 19.6875C38.3542 19.4635 39.0391 19.3516 39.8516 19.3516C40.5964 19.3516 41.2266 19.4714 41.7422 19.7109C42.2578 19.9453 42.6484 20.3281 42.9141 20.8594C43.1849 21.3906 43.3203 22.1016 43.3203 22.9922V25.8594C43.3203 26.0365 43.3438 26.1536 43.3906 26.2109C43.4427 26.2682 43.5495 26.2969 43.7109 26.2969H44.0938V28H42.9844C42.375 28 41.9115 27.849 41.5938 27.5469C41.2812 27.2396 41.125 26.7995 41.125 26.2266V25.8281L41.5312 25.9844C41.4635 26.2083 41.3646 26.4479 41.2344 26.7031C41.1042 26.9583 40.9219 27.2005 40.6875 27.4297C40.4583 27.6536 40.1667 27.8385 39.8125 27.9844C39.4583 28.1302 39.0234 28.2031 38.5078 28.2031ZM39.1797 26.6094C39.5443 26.6094 39.8672 26.526 40.1484 26.3594C40.4297 26.1927 40.651 25.9427 40.8125 25.6094C40.974 25.2708 41.0547 24.8516 41.0547 24.3516V24.1719H40.0703C39.513 24.1719 39.0781 24.2448 38.7656 24.3906C38.4583 24.5365 38.2422 24.7161 38.1172 24.9297C37.9922 25.138 37.9297 25.3411 37.9297 25.5391C37.9297 25.6953 37.9661 25.8568 38.0391 26.0234C38.1172 26.1901 38.2448 26.3307 38.4219 26.4453C38.6042 26.5547 38.8568 26.6094 39.1797 26.6094ZM49.4766 28.2031C48.5911 28.2031 47.8229 28.0234 47.1719 27.6641C46.526 27.3047 46.0286 26.7943 45.6797 26.1328C45.3307 25.4714 45.1562 24.6849 45.1562 23.7734C45.1562 22.8672 45.3307 22.0833 45.6797 21.4219C46.0286 20.7604 46.526 20.2526 47.1719 19.8984C47.8177 19.5391 48.5833 19.3594 49.4688 19.3594C50.1042 19.3594 50.6953 19.474 51.2422 19.7031C51.7891 19.9323 52.2526 20.2734 52.6328 20.7266C53.0182 21.1745 53.2812 21.7318 53.4219 22.3984L51.2188 22.8672C51.1042 22.2682 50.8958 21.8203 50.5938 21.5234C50.2917 21.2214 49.9115 21.0703 49.4531 21.0703C48.8229 21.0703 48.3542 21.3203 48.0469 21.8203C47.7448 22.3203 47.5938 22.9818 47.5938 23.8047C47.5938 24.6224 47.7448 25.276 48.0469 25.7656C48.349 26.25 48.8203 26.4922 49.4609 26.4922C49.9036 26.4922 50.276 26.3594 50.5781 26.0938C50.8854 25.8229 51.1094 25.4115 51.25 24.8594L53.3828 25.2578C53.2786 25.7682 53.099 26.2109 52.8438 26.5859C52.5885 26.9557 52.2812 27.2604 51.9219 27.5C51.5677 27.7344 51.1823 27.9089 50.7656 28.0234C50.349 28.1432 49.9193 28.2031 49.4766 28.2031ZM54.9375 28V16.2812H57.2656V22.8125L60.5234 19.5625H63.1797L60.0078 22.7188L63.3047 28H60.7031L58.4453 24.3281L57.2656 25.5V28H54.9375ZM70.4062 28C69.7812 28 69.2995 27.849 68.9609 27.5469C68.6276 27.2396 68.4609 26.7995 68.4609 26.2266V21.2656H67.2578V19.5625H68.4609V17.9062L70.7891 17.3438V19.5625H72.3516V21.2656H70.7891V25.8594C70.7891 26.0312 70.8125 26.1484 70.8594 26.2109C70.9115 26.2682 71.0182 26.2969 71.1797 26.2969H72.4688V28H70.4062ZM77.6328 28.2031C76.7839 28.2031 76.0339 28.0156 75.3828 27.6406C74.737 27.2656 74.2318 26.7474 73.8672 26.0859C73.5026 25.4193 73.3203 24.651 73.3203 23.7812C73.3203 22.9062 73.5026 22.138 73.8672 21.4766C74.2318 20.8099 74.737 20.2917 75.3828 19.9219C76.0339 19.5469 76.7839 19.3594 77.6328 19.3594C78.487 19.3594 79.237 19.5469 79.8828 19.9219C80.5339 20.2917 81.0417 20.8099 81.4062 21.4766C81.7708 22.138 81.9531 22.9062 81.9531 23.7812C81.9531 24.6562 81.7708 25.4271 81.4062 26.0938C81.0417 26.7552 80.5339 27.2734 79.8828 27.6484C79.2318 28.0182 78.4818 28.2031 77.6328 28.2031ZM77.6406 26.4922C78.2188 26.4922 78.6745 26.25 79.0078 25.7656C79.3464 25.276 79.5156 24.6146 79.5156 23.7812C79.5156 22.9427 79.3464 22.2812 79.0078 21.7969C78.6745 21.3125 78.2161 21.0703 77.6328 21.0703C77.0547 21.0703 76.5964 21.3125 76.2578 21.7969C75.9245 22.2812 75.7578 22.9427 75.7578 23.7812C75.7578 24.6198 75.9245 25.2812 76.2578 25.7656C76.5964 26.25 77.0573 26.4922 77.6406 26.4922ZM90.1875 28V18.7891H86.2109V16.75H96.5938V18.7891H92.6016V28H90.1875ZM100.148 28.2031C99.2995 28.2031 98.5495 28.0156 97.8984 27.6406C97.2526 27.2656 96.7474 26.7474 96.3828 26.0859C96.0182 25.4193 95.8359 24.651 95.8359 23.7812C95.8359 22.9062 96.0182 22.138 96.3828 21.4766C96.7474 20.8099 97.2526 20.2917 97.8984 19.9219C98.5495 19.5469 99.2995 19.3594 100.148 19.3594C101.003 19.3594 101.753 19.5469 102.398 19.9219C103.049 20.2917 103.557 20.8099 103.922 21.4766C104.286 22.138 104.469 22.9062 104.469 23.7812C104.469 24.6562 104.286 25.4271 103.922 26.0938C103.557 26.7552 103.049 27.2734 102.398 27.6484C101.747 28.0182 100.997 28.2031 100.148 28.2031ZM100.156 26.4922C100.734 26.4922 101.19 26.25 101.523 25.7656C101.862 25.276 102.031 24.6146 102.031 23.7812C102.031 22.9427 101.862 22.2812 101.523 21.7969C101.19 21.3125 100.732 21.0703 100.148 21.0703C99.5703 21.0703 99.112 21.3125 98.7734 21.7969C98.4401 22.2812 98.2734 22.9427 98.2734 23.7812C98.2734 24.6198 98.4401 25.2812 98.7734 25.7656C99.112 26.25 99.5729 26.4922 100.156 26.4922ZM106.086 31.0469V19.5625H108.289V21.2578L108.266 21.1328C108.557 20.5182 108.945 20.0703 109.43 19.7891C109.919 19.5026 110.466 19.3594 111.07 19.3594C111.779 19.3594 112.391 19.5365 112.906 19.8906C113.427 20.2396 113.828 20.7474 114.109 21.4141C114.391 22.0755 114.531 22.8698 114.531 23.7969C114.531 24.724 114.388 25.5182 114.102 26.1797C113.82 26.8359 113.417 27.3385 112.891 27.6875C112.37 28.0312 111.75 28.2031 111.031 28.2031C110.406 28.2031 109.849 28.0599 109.359 27.7734C108.875 27.4818 108.482 27.0104 108.18 26.3594L108.398 26.3438V31.0469H106.086ZM110.203 26.4453C110.771 26.4453 111.224 26.2083 111.562 25.7344C111.901 25.2552 112.07 24.5938 112.07 23.75C112.07 22.9167 111.904 22.2708 111.57 21.8125C111.242 21.349 110.792 21.1172 110.219 21.1172C109.859 21.1172 109.534 21.2135 109.242 21.4062C108.956 21.599 108.727 21.8932 108.555 22.2891C108.388 22.6797 108.305 23.1719 108.305 23.7656C108.305 24.6562 108.487 25.3255 108.852 25.7734C109.216 26.2214 109.667 26.4453 110.203 26.4453Z" fill="#003262"/>
<path d="M134 27.8335V16.1668M134 16.1668L128.167 22.0002M134 16.1668L139.833 22.0002" stroke="#003262" stroke-width="1.5" stroke-linecap="round"/>
</svg>
