<svg width="221" height="19" viewBox="0 0 221 19" fill="none" xmlns="http://www.w3.org/2000/svg">
<path d="M7.98047 18.3047C6.72266 18.3047 5.5625 18.1133 4.5 17.7305C3.44531 17.3477 2.56641 16.7617 1.86328 15.9727C1.16797 15.1836 0.722656 14.1836 0.527344 12.9727L4.30078 12.2109C4.36328 13.2734 4.69531 14.0664 5.29688 14.5898C5.90625 15.1055 6.77344 15.3633 7.89844 15.3633C8.64062 15.3633 9.23047 15.2656 9.66797 15.0703C10.1133 14.875 10.4336 14.6172 10.6289 14.2969C10.8242 13.9688 10.9219 13.6094 10.9219 13.2188C10.9219 12.5938 10.6875 12.1172 10.2188 11.7891C9.75781 11.4531 9.15234 11.2109 8.40234 11.0625L6.70312 10.7344C6.11719 10.625 5.51172 10.4766 4.88672 10.2891C4.26172 10.0938 3.67969 9.82031 3.14062 9.46875C2.60938 9.10938 2.17578 8.64453 1.83984 8.07422C1.51172 7.49609 1.34766 6.77344 1.34766 5.90625C1.34766 4.80469 1.62891 3.875 2.19141 3.11719C2.76172 2.35938 3.53125 1.78906 4.5 1.40625C5.47656 1.01563 6.58203 0.820312 7.81641 0.820312C9.01953 0.820312 10.0977 1.00391 11.0508 1.37109C12.0117 1.73828 12.8047 2.27344 13.4297 2.97656C14.0547 3.67188 14.4688 4.52344 14.6719 5.53125L10.9688 6.29297C10.8984 5.77734 10.7539 5.33203 10.5352 4.95703C10.3242 4.57422 10.0117 4.28125 9.59766 4.07812C9.18359 3.86719 8.63281 3.76172 7.94531 3.76172C7.33594 3.76172 6.82031 3.84375 6.39844 4.00781C5.98438 4.17188 5.66797 4.39844 5.44922 4.6875C5.23828 4.96875 5.13281 5.30078 5.13281 5.68359C5.13281 6.23828 5.39844 6.66797 5.92969 6.97266C6.46875 7.26953 7.20703 7.50781 8.14453 7.6875L9.89062 8.03906C10.7031 8.19531 11.4844 8.45703 12.2344 8.82422C12.9844 9.18359 13.5977 9.69922 14.0742 10.3711C14.5508 11.043 14.7891 11.9219 14.7891 13.0078C14.7891 14.1484 14.5 15.1133 13.9219 15.9023C13.3438 16.6914 12.543 17.2891 11.5195 17.6953C10.5039 18.1016 9.32422 18.3047 7.98047 18.3047ZM20.9648 18.3047C20.1602 18.3047 19.418 18.1641 18.7383 17.8828C18.0586 17.5938 17.5117 17.168 17.0977 16.6055C16.6914 16.043 16.4883 15.3398 16.4883 14.4961C16.4883 13.5898 16.75 12.8203 17.2734 12.1875C17.7969 11.5547 18.5586 11.0742 19.5586 10.7461C20.5586 10.4102 21.7656 10.2422 23.1797 10.2422H24.9609L24.75 10.5586V9.83203C24.75 8.99609 24.5977 8.375 24.293 7.96875C23.9883 7.55469 23.4844 7.34766 22.7812 7.34766C22.1094 7.34766 21.5938 7.52734 21.2344 7.88672C20.8828 8.23828 20.668 8.74219 20.5898 9.39844L17.0273 8.78906C17.1602 8.08594 17.4609 7.45312 17.9297 6.89062C18.4062 6.32031 19.0625 5.86719 19.8984 5.53125C20.7344 5.19531 21.7617 5.02734 22.9805 5.02734C24.0977 5.02734 25.043 5.20703 25.8164 5.56641C26.5898 5.91797 27.1758 6.49219 27.5742 7.28906C27.9805 8.08594 28.1836 9.15234 28.1836 10.4883V14.7891C28.1836 15.0547 28.2188 15.2305 28.2891 15.3164C28.3672 15.4023 28.5273 15.4453 28.7695 15.4453H29.3438V18H27.6797C26.7656 18 26.0703 17.7734 25.5938 17.3203C25.125 16.8594 24.8906 16.1992 24.8906 15.3398V14.7422L25.5 14.9766C25.3984 15.3125 25.25 15.6719 25.0547 16.0547C24.8594 16.4375 24.5859 16.8008 24.2344 17.1445C23.8906 17.4805 23.4531 17.7578 22.9219 17.9766C22.3906 18.1953 21.7383 18.3047 20.9648 18.3047ZM21.9727 15.9141C22.5195 15.9141 23.0039 15.7891 23.4258 15.5391C23.8477 15.2891 24.1797 14.9141 24.4219 14.4141C24.6641 13.9062 24.7852 13.2773 24.7852 12.5273V12.2578H23.3086C22.4727 12.2578 21.8203 12.3672 21.3516 12.5859C20.8906 12.8047 20.5664 13.0742 20.3789 13.3945C20.1914 13.707 20.0977 14.0117 20.0977 14.3086C20.0977 14.543 20.1523 14.7852 20.2617 15.0352C20.3789 15.2852 20.5703 15.4961 20.8359 15.668C21.1094 15.832 21.4883 15.9141 21.9727 15.9141ZM36.6562 18.3047C35.7031 18.3047 34.8047 18.168 33.9609 17.8945C33.1172 17.6133 32.4062 17.1797 31.8281 16.5938C31.25 16.0078 30.8828 15.2461 30.7266 14.3086L33.9141 13.6758C33.9844 14.3867 34.2344 14.9258 34.6641 15.293C35.1016 15.6523 35.7227 15.832 36.5273 15.832C37.3008 15.832 37.875 15.6797 38.25 15.375C38.625 15.0625 38.8125 14.6992 38.8125 14.2852C38.8125 13.918 38.6641 13.6016 38.3672 13.3359C38.0781 13.0703 37.5742 12.8828 36.8555 12.7734L35.707 12.5859C35.2539 12.5156 34.7695 12.4219 34.2539 12.3047C33.7461 12.1797 33.2656 11.9961 32.8125 11.7539C32.3594 11.5039 31.9883 11.1602 31.6992 10.7227C31.4102 10.2852 31.2656 9.72266 31.2656 9.03516C31.2656 8.19922 31.4883 7.48438 31.9336 6.89062C32.3867 6.28906 33.0117 5.83203 33.8086 5.51953C34.6055 5.19922 35.5156 5.03906 36.5391 5.03906C37.4844 5.03906 38.3477 5.17969 39.1289 5.46094C39.9102 5.73438 40.5625 6.14062 41.0859 6.67969C41.6172 7.21094 41.9609 7.87109 42.1172 8.66016L38.9297 9.31641C38.875 8.99609 38.7695 8.69531 38.6133 8.41406C38.4648 8.13281 38.2344 7.90625 37.9219 7.73438C37.6094 7.55469 37.1875 7.46484 36.6562 7.46484C36.0547 7.46484 35.5742 7.58203 35.2148 7.81641C34.8633 8.05078 34.6875 8.37109 34.6875 8.77734C34.6875 9.07422 34.7852 9.31641 34.9805 9.50391C35.1836 9.69141 35.457 9.84375 35.8008 9.96094C36.1523 10.0703 36.5469 10.1641 36.9844 10.2422L38.2969 10.4648C38.9688 10.5742 39.6055 10.7656 40.207 11.0391C40.8164 11.3047 41.3125 11.6875 41.6953 12.1875C42.0781 12.6875 42.2695 13.3438 42.2695 14.1562C42.2695 15.0547 42.0234 15.8125 41.5312 16.4297C41.0469 17.0469 40.3789 17.5156 39.5273 17.8359C38.6836 18.1484 37.7266 18.3047 36.6562 18.3047ZM48 18L43.207 5.34375H47.1094L50.2383 15.5156H49.9219L53.0391 5.34375H56.9297L52.1602 18H48ZM62.0273 18.3047C61.2227 18.3047 60.4805 18.1641 59.8008 17.8828C59.1211 17.5938 58.5742 17.168 58.1602 16.6055C57.7539 16.043 57.5508 15.3398 57.5508 14.4961C57.5508 13.5898 57.8125 12.8203 58.3359 12.1875C58.8594 11.5547 59.6211 11.0742 60.6211 10.7461C61.6211 10.4102 62.8281 10.2422 64.2422 10.2422H66.0234L65.8125 10.5586V9.83203C65.8125 8.99609 65.6602 8.375 65.3555 7.96875C65.0508 7.55469 64.5469 7.34766 63.8438 7.34766C63.1719 7.34766 62.6562 7.52734 62.2969 7.88672C61.9453 8.23828 61.7305 8.74219 61.6523 9.39844L58.0898 8.78906C58.2227 8.08594 58.5234 7.45312 58.9922 6.89062C59.4688 6.32031 60.125 5.86719 60.9609 5.53125C61.7969 5.19531 62.8242 5.02734 64.043 5.02734C65.1602 5.02734 66.1055 5.20703 66.8789 5.56641C67.6523 5.91797 68.2383 6.49219 68.6367 7.28906C69.043 8.08594 69.2461 9.15234 69.2461 10.4883V14.7891C69.2461 15.0547 69.2812 15.2305 69.3516 15.3164C69.4297 15.4023 69.5898 15.4453 69.832 15.4453H70.4062V18H68.7422C67.8281 18 67.1328 17.7734 66.6562 17.3203C66.1875 16.8594 65.9531 16.1992 65.9531 15.3398V14.7422L66.5625 14.9766C66.4609 15.3125 66.3125 15.6719 66.1172 16.0547C65.9219 16.4375 65.6484 16.8008 65.2969 17.1445C64.9531 17.4805 64.5156 17.7578 63.9844 17.9766C63.4531 18.1953 62.8008 18.3047 62.0273 18.3047ZM63.0352 15.9141C63.582 15.9141 64.0664 15.7891 64.4883 15.5391C64.9102 15.2891 65.2422 14.9141 65.4844 14.4141C65.7266 13.9062 65.8477 13.2773 65.8477 12.5273V12.2578H64.3711C63.5352 12.2578 62.8828 12.3672 62.4141 12.5859C61.9531 12.8047 61.6289 13.0742 61.4414 13.3945C61.2539 13.707 61.1602 14.0117 61.1602 14.3086C61.1602 14.543 61.2148 14.7852 61.3242 15.0352C61.4414 15.2852 61.6328 15.4961 61.8984 15.668C62.1719 15.832 62.5508 15.9141 63.0352 15.9141ZM76.0078 18C75.0703 18 74.3477 17.7734 73.8398 17.3203C73.3398 16.8594 73.0898 16.1992 73.0898 15.3398V7.89844H71.2852V5.34375H73.0898V2.85938L76.582 2.01562V5.34375H78.9258V7.89844H76.582V14.7891C76.582 15.0469 76.6172 15.2227 76.6875 15.3164C76.7656 15.4023 76.9258 15.4453 77.168 15.4453H79.1016V18H76.0078ZM90.4609 18V5.38281H85.4316V3.9375H97.2676V5.38281H92.2188V18H90.4609ZM101.369 18.2344C100.367 18.2344 99.4974 18.0098 98.7617 17.5605C98.0326 17.1113 97.4694 16.4766 97.0723 15.6562C96.6751 14.8294 96.4766 13.8561 96.4766 12.7363C96.4766 11.61 96.6751 10.6335 97.0723 9.80664C97.4694 8.97982 98.0293 8.3418 98.752 7.89258C99.4746 7.44336 100.324 7.21875 101.301 7.21875C101.861 7.21875 102.421 7.3099 102.98 7.49219C103.547 7.66797 104.061 7.97721 104.523 8.41992C104.992 8.85612 105.367 9.45833 105.646 10.2266C105.933 10.9883 106.076 11.9518 106.076 13.1172H97.5312V11.7891H104.65L104.182 12.4043C104.149 11.4798 103.999 10.7376 103.732 10.1777C103.465 9.61784 103.117 9.21419 102.688 8.9668C102.264 8.71289 101.792 8.58594 101.271 8.58594C100.653 8.58594 100.119 8.7487 99.6699 9.07422C99.2207 9.39323 98.8757 9.86198 98.6348 10.4805C98.3939 11.099 98.2734 11.8542 98.2734 12.7461C98.2734 14.0612 98.5404 15.0768 99.0742 15.793C99.6146 16.5091 100.38 16.8672 101.369 16.8672C102.079 16.8672 102.674 16.6882 103.156 16.3301C103.645 15.972 104.003 15.4544 104.23 14.7773L105.842 15.3242C105.588 15.9362 105.249 16.4603 104.826 16.8965C104.403 17.3262 103.898 17.6582 103.312 17.8926C102.733 18.1204 102.085 18.2344 101.369 18.2344ZM113.059 18.2344C112.069 18.2344 111.213 18.0098 110.49 17.5605C109.768 17.1113 109.211 16.4766 108.82 15.6562C108.43 14.8294 108.234 13.8529 108.234 12.7266C108.234 11.6003 108.43 10.627 108.82 9.80664C109.211 8.97982 109.768 8.3418 110.49 7.89258C111.213 7.44336 112.069 7.21875 113.059 7.21875C113.814 7.21875 114.488 7.35872 115.08 7.63867C115.679 7.91211 116.184 8.30924 116.594 8.83008C117.01 9.3444 117.316 9.96615 117.512 10.6953L115.842 11.1348C115.66 10.3145 115.331 9.6862 114.855 9.25C114.387 8.80729 113.788 8.58594 113.059 8.58594C112.089 8.58594 111.34 8.94727 110.812 9.66992C110.292 10.3861 110.031 11.4049 110.031 12.7266C110.031 14.0547 110.292 15.0768 110.812 15.793C111.34 16.5091 112.089 16.8672 113.059 16.8672C113.781 16.8672 114.377 16.6556 114.846 16.2324C115.314 15.8027 115.643 15.1842 115.832 14.377L117.492 14.8457C117.336 15.3796 117.121 15.8548 116.848 16.2715C116.574 16.6882 116.249 17.043 115.871 17.3359C115.5 17.6289 115.077 17.8503 114.602 18C114.133 18.1562 113.618 18.2344 113.059 18.2344ZM119.895 18V3.35156H121.535V9.93359L121.369 9.50391C121.643 8.84635 122.082 8.30273 122.688 7.87305C123.299 7.43685 124.045 7.21875 124.924 7.21875C125.666 7.21875 126.304 7.38477 126.838 7.7168C127.378 8.04883 127.795 8.52409 128.088 9.14258C128.381 9.75456 128.527 10.4935 128.527 11.3594V18H126.887V11.4863C126.887 10.5944 126.717 9.88802 126.379 9.36719C126.047 8.84635 125.454 8.58594 124.602 8.58594C123.69 8.58594 122.951 8.91146 122.385 9.5625C121.818 10.207 121.535 11.1803 121.535 12.4824V18H119.895ZM141.105 18.2344C140.025 18.2344 139.081 18.0553 138.273 17.6973C137.473 17.3327 136.825 16.8086 136.33 16.125C135.835 15.4349 135.507 14.6048 135.344 13.6348L137.434 13.2051C137.479 14.3574 137.814 15.2428 138.439 15.8613C139.064 16.4798 139.937 16.7891 141.057 16.7891C141.734 16.7891 142.307 16.6784 142.775 16.457C143.251 16.2357 143.612 15.9232 143.859 15.5195C144.113 15.1159 144.24 14.6406 144.24 14.0938C144.24 13.3646 144.029 12.8242 143.605 12.4727C143.189 12.1146 142.616 11.8542 141.887 11.6914L140.051 11.2812C139.712 11.2031 139.318 11.0957 138.869 10.959C138.426 10.8223 137.997 10.6204 137.58 10.3535C137.163 10.0866 136.815 9.72526 136.535 9.26953C136.262 8.8138 136.125 8.23112 136.125 7.52148C136.125 6.61654 136.356 5.88411 136.818 5.32422C137.287 4.76432 137.893 4.35417 138.635 4.09375C139.383 3.83333 140.178 3.70312 141.018 3.70312C141.988 3.70312 142.818 3.85938 143.508 4.17188C144.204 4.47786 144.764 4.91406 145.188 5.48047C145.617 6.04688 145.907 6.72396 146.057 7.51172L143.996 7.94141C143.944 7.34245 143.798 6.83789 143.557 6.42773C143.316 6.01107 142.977 5.69531 142.541 5.48047C142.105 5.25911 141.561 5.14844 140.91 5.14844C140.383 5.14844 139.888 5.22656 139.426 5.38281C138.97 5.53906 138.599 5.7832 138.312 6.11523C138.026 6.44727 137.883 6.88021 137.883 7.41406C137.883 7.97396 138.075 8.42318 138.459 8.76172C138.85 9.09375 139.497 9.36393 140.402 9.57227L142.258 10.002C142.915 10.1517 143.537 10.3763 144.123 10.6758C144.709 10.9753 145.184 11.3952 145.549 11.9355C145.913 12.4694 146.096 13.1758 146.096 14.0547C146.096 14.9336 145.894 15.6855 145.49 16.3105C145.093 16.9355 144.52 17.4141 143.771 17.7461C143.029 18.0716 142.141 18.2344 141.105 18.2344ZM153.303 18.2344C152.313 18.2344 151.441 18.0033 150.686 17.541C149.93 17.0723 149.341 16.4245 148.918 15.5977C148.495 14.7708 148.283 13.8138 148.283 12.7266C148.283 11.6393 148.495 10.6823 148.918 9.85547C149.341 9.02865 149.93 8.38411 150.686 7.92188C151.441 7.45312 152.313 7.21875 153.303 7.21875C154.292 7.21875 155.165 7.45312 155.92 7.92188C156.675 8.38411 157.264 9.02865 157.688 9.85547C158.111 10.6823 158.322 11.6393 158.322 12.7266C158.322 13.8138 158.111 14.7708 157.688 15.5977C157.264 16.4245 156.675 17.0723 155.92 17.541C155.165 18.0033 154.292 18.2344 153.303 18.2344ZM153.303 16.8672C154.299 16.8672 155.083 16.4961 155.656 15.7539C156.236 15.0117 156.525 14.0026 156.525 12.7266C156.525 11.444 156.236 10.4349 155.656 9.69922C155.083 8.95703 154.299 8.58594 153.303 8.58594C152.307 8.58594 151.519 8.95703 150.939 9.69922C150.367 10.4349 150.08 11.444 150.08 12.7266C150.08 14.0026 150.367 15.0117 150.939 15.7539C151.519 16.4961 152.307 16.8672 153.303 16.8672ZM162.346 18C161.929 18 161.564 17.8633 161.252 17.5898C160.939 17.3099 160.783 16.9583 160.783 16.5352V3.35156H162.424V16.0957C162.424 16.3105 162.453 16.4538 162.512 16.5254C162.577 16.597 162.71 16.6328 162.912 16.6328H163.938V18H162.346ZM169.445 18.2344C168.71 18.2344 168.072 18.0684 167.531 17.7363C166.991 17.4043 166.574 16.929 166.281 16.3105C165.988 15.6921 165.842 14.9531 165.842 14.0938V7.45312H167.482V13.9668C167.482 14.8262 167.645 15.526 167.971 16.0664C168.296 16.6003 168.882 16.8672 169.729 16.8672C170.36 16.8672 170.907 16.7044 171.369 16.3789C171.831 16.0534 172.189 15.5651 172.443 14.9141C172.704 14.263 172.834 13.4492 172.834 12.4727V7.45312H174.475V18H172.932V15.5195L173 15.9492C172.727 16.6003 172.284 17.1439 171.672 17.5801C171.066 18.0163 170.324 18.2344 169.445 18.2344ZM180.012 18C179.595 18 179.23 17.8633 178.918 17.5898C178.605 17.3099 178.449 16.9583 178.449 16.5352V8.82031H176.75V7.45312H178.449V5.24609L180.09 4.89453V7.45312H182.18V8.82031H180.09V16.0957C180.09 16.3105 180.119 16.4538 180.178 16.5254C180.243 16.597 180.376 16.6328 180.578 16.6328H182.189V18H180.012ZM184.562 18V7.45312H186.203V18H184.562ZM185.383 5.68555C185.005 5.68555 184.683 5.55208 184.416 5.28516C184.149 5.01823 184.016 4.69596 184.016 4.31836C184.016 3.93424 184.149 3.61198 184.416 3.35156C184.683 3.08464 185.005 2.95117 185.383 2.95117C185.767 2.95117 186.089 3.08464 186.35 3.35156C186.617 3.61198 186.75 3.93424 186.75 4.31836C186.75 4.69596 186.617 5.01823 186.35 5.28516C186.089 5.55208 185.767 5.68555 185.383 5.68555ZM193.674 18.2344C192.684 18.2344 191.812 18.0033 191.057 17.541C190.301 17.0723 189.712 16.4245 189.289 15.5977C188.866 14.7708 188.654 13.8138 188.654 12.7266C188.654 11.6393 188.866 10.6823 189.289 9.85547C189.712 9.02865 190.301 8.38411 191.057 7.92188C191.812 7.45312 192.684 7.21875 193.674 7.21875C194.663 7.21875 195.536 7.45312 196.291 7.92188C197.046 8.38411 197.635 9.02865 198.059 9.85547C198.482 10.6823 198.693 11.6393 198.693 12.7266C198.693 13.8138 198.482 14.7708 198.059 15.5977C197.635 16.4245 197.046 17.0723 196.291 17.541C195.536 18.0033 194.663 18.2344 193.674 18.2344ZM193.674 16.8672C194.67 16.8672 195.454 16.4961 196.027 15.7539C196.607 15.0117 196.896 14.0026 196.896 12.7266C196.896 11.444 196.607 10.4349 196.027 9.69922C195.454 8.95703 194.67 8.58594 193.674 8.58594C192.678 8.58594 191.89 8.95703 191.311 9.69922C190.738 10.4349 190.451 11.444 190.451 12.7266C190.451 14.0026 190.738 15.0117 191.311 15.7539C191.89 16.4961 192.678 16.8672 193.674 16.8672ZM201.135 18V7.45312H202.678V9.83594L202.609 9.40625C202.889 8.80078 203.332 8.28646 203.938 7.86328C204.543 7.43359 205.279 7.21875 206.145 7.21875C206.893 7.21875 207.538 7.38477 208.078 7.7168C208.618 8.04883 209.035 8.52409 209.328 9.14258C209.621 9.75456 209.768 10.4935 209.768 11.3594V18H208.127V11.4863C208.127 10.6204 207.948 9.92057 207.59 9.38672C207.238 8.85286 206.656 8.58594 205.842 8.58594C204.963 8.58594 204.23 8.92122 203.645 9.5918C203.065 10.2559 202.775 11.2194 202.775 12.4824V18H201.135ZM216.34 18.2344C215.578 18.2344 214.885 18.1107 214.26 17.8633C213.641 17.6094 213.127 17.2285 212.717 16.7207C212.307 16.2064 212.033 15.5553 211.896 14.7676L213.615 14.4355C213.687 15.2624 213.967 15.8776 214.455 16.2812C214.95 16.6849 215.568 16.8867 216.311 16.8867C217.046 16.8867 217.632 16.7012 218.068 16.3301C218.505 15.959 218.723 15.5065 218.723 14.9727C218.723 14.5169 218.566 14.1556 218.254 13.8887C217.948 13.6217 217.502 13.4329 216.916 13.3223L215.637 13.0781C215.292 13.013 214.934 12.9219 214.562 12.8047C214.191 12.6875 213.843 12.5247 213.518 12.3164C213.199 12.1081 212.938 11.8346 212.736 11.4961C212.541 11.1576 212.443 10.7311 212.443 10.2168C212.443 9.52669 212.622 8.96354 212.98 8.52734C213.345 8.08464 213.824 7.75586 214.416 7.54102C215.015 7.32617 215.66 7.21875 216.35 7.21875C217.105 7.21875 217.762 7.33594 218.322 7.57031C218.882 7.80469 219.338 8.13997 219.689 8.57617C220.041 9.01237 220.275 9.53971 220.393 10.1582L218.586 10.5195C218.54 10.1224 218.433 9.77734 218.264 9.48438C218.101 9.19141 217.86 8.9668 217.541 8.81055C217.229 8.64779 216.822 8.56641 216.32 8.56641C215.715 8.56641 215.194 8.69336 214.758 8.94727C214.322 9.20117 214.104 9.58529 214.104 10.0996C214.104 10.3861 214.175 10.6302 214.318 10.832C214.468 11.0339 214.689 11.2031 214.982 11.3398C215.282 11.4701 215.656 11.584 216.105 11.6816L217.404 11.9551C217.951 12.0658 218.456 12.2318 218.918 12.4531C219.38 12.668 219.751 12.9674 220.031 13.3516C220.311 13.7357 220.451 14.2435 220.451 14.875C220.451 15.5716 220.275 16.1738 219.924 16.6816C219.579 17.1829 219.097 17.5671 218.479 17.834C217.867 18.1009 217.154 18.2344 216.34 18.2344Z" fill="white"/>
</svg>
